<?xml version="1.0" encoding="UTF-8" standalone="no"?>
<!-- Created with Inkscape (http://www.inkscape.org/) -->

<svg
   xmlns:osb="http://www.openswatchbook.org/uri/2009/osb"
   xmlns:dc="http://purl.org/dc/elements/1.1/"
   xmlns:cc="http://creativecommons.org/ns#"
   xmlns:rdf="http://www.w3.org/1999/02/22-rdf-syntax-ns#"
   xmlns:svg="http://www.w3.org/2000/svg"
   xmlns="http://www.w3.org/2000/svg"
   xmlns:sodipodi="http://sodipodi.sourceforge.net/DTD/sodipodi-0.dtd"
   xmlns:inkscape="http://www.inkscape.org/namespaces/inkscape"
   width="1965"
   height="1965"
   id="svg2"
   version="1.1"
   inkscape:version="0.48.2 r9819"
   sodipodi:docname="Mark - Thane.svg">
  <defs
     id="defs4">
    <marker
       inkscape:stockid="Arrow2Sstart"
       orient="auto"
       refY="0"
       refX="0"
       id="Arrow2Sstart"
       style="overflow:visible">
      <path
         id="path4468"
         style="font-size:12px;fill-rule:evenodd;stroke-width:0.625;stroke-linejoin:round"
         d="M 8.7185878,4.0337352 -2.2072895,0.01601326 8.7185884,-4.0017078 c -1.7454984,2.3720609 -1.7354408,5.6174519 -6e-7,8.035443 z"
         transform="matrix(0.3,0,0,0.3,-0.69,0)"
         inkscape:connector-curvature="0" />
    </marker>
    <marker
       inkscape:stockid="Arrow1Sstart"
       orient="auto"
       refY="0"
       refX="0"
       id="Arrow1Sstart"
       style="overflow:visible">
      <path
         id="path4450"
         d="M 0,0 5,-5 -12.5,0 5,5 0,0 z"
         style="fill-rule:evenodd;stroke:#000000;stroke-width:1pt;marker-start:none"
         transform="matrix(0.2,0,0,0.2,1.2,0)"
         inkscape:connector-curvature="0" />
    </marker>
    <linearGradient
       id="linearGradient16716"
       osb:paint="solid">
      <stop
         style="stop-color:#000000;stop-opacity:1;"
         offset="0"
         id="stop16718" />
    </linearGradient>
    <marker
       inkscape:stockid="DiamondM"
       orient="auto"
       refY="0"
       refX="0"
       id="DiamondM"
       style="overflow:visible">
      <path
         id="path4521"
         d="M 0,-7.0710768 -7.0710894,0 0,7.0710589 7.0710462,0 0,-7.0710768 z"
         style="fill-rule:evenodd;stroke:#000000;stroke-width:1pt;marker-start:none"
         transform="scale(0.4,0.4)"
         inkscape:connector-curvature="0" />
    </marker>
    <marker
       inkscape:stockid="SquareL"
       orient="auto"
       refY="0"
       refX="0"
       id="SquareL"
       style="overflow:visible">
      <path
         id="path4509"
         d="M -5,-5 -5,5 5,5 5,-5 -5,-5 z"
         style="fill-rule:evenodd;stroke:#000000;stroke-width:1pt;marker-start:none"
         transform="scale(0.8,0.8)"
         inkscape:connector-curvature="0" />
    </marker>
    <marker
       inkscape:stockid="DotS"
       orient="auto"
       refY="0"
       refX="0"
       id="DotS"
       style="overflow:visible">
      <path
         id="path4506"
         d="m -2.5,-1 c 0,2.76 -2.24,5 -5,5 -2.76,0 -5,-2.24 -5,-5 0,-2.76 2.24,-5 5,-5 2.76,0 5,2.24 5,5 z"
         style="fill-rule:evenodd;stroke:#000000;stroke-width:1pt;marker-start:none;marker-end:none"
         transform="matrix(0.2,0,0,0.2,1.48,0.2)"
         inkscape:connector-curvature="0" />
    </marker>
    <marker
       inkscape:stockid="SquareS"
       orient="auto"
       refY="0"
       refX="0"
       id="SquareS"
       style="overflow:visible">
      <path
         id="path4515"
         d="M -5,-5 -5,5 5,5 5,-5 -5,-5 z"
         style="fill-rule:evenodd;stroke:#000000;stroke-width:1pt;marker-start:none"
         transform="scale(0.2,0.2)"
         inkscape:connector-curvature="0" />
    </marker>
    <marker
       inkscape:stockid="SquareM"
       orient="auto"
       refY="0"
       refX="0"
       id="SquareM"
       style="overflow:visible">
      <path
         id="path4512"
         d="M -5,-5 -5,5 5,5 5,-5 -5,-5 z"
         style="fill-rule:evenodd;stroke:#000000;stroke-width:1pt;marker-start:none"
         transform="scale(0.4,0.4)"
         inkscape:connector-curvature="0" />
    </marker>
    <marker
       style="overflow:visible"
       id="DistanceStart"
       refX="0"
       refY="0"
       orient="auto"
       inkscape:stockid="DistanceStart">
      <g
         id="g2300">
        <path
           style="fill:none;stroke:#ffffff;stroke-width:1.14999998;stroke-linecap:square"
           d="M 0,0 2,0"
           id="path2306"
           inkscape:connector-curvature="0" />
        <path
           style="fill:#000000;fill-rule:evenodd;stroke:none"
           d="M 0,0 13,4 9,0 13,-4 0,0 z"
           id="path2302"
           inkscape:connector-curvature="0" />
        <path
           style="fill:none;stroke:#000000;stroke-width:1;stroke-linecap:square"
           d="M 0,-4 0,40"
           id="path2304"
           inkscape:connector-curvature="0" />
      </g>
    </marker>
    <marker
       inkscape:stockid="DotM"
       orient="auto"
       refY="0"
       refX="0"
       id="DotM"
       style="overflow:visible">
      <path
         id="path4503"
         d="m -2.5,-1 c 0,2.76 -2.24,5 -5,5 -2.76,0 -5,-2.24 -5,-5 0,-2.76 2.24,-5 5,-5 2.76,0 5,2.24 5,5 z"
         style="fill-rule:evenodd;stroke:#000000;stroke-width:1pt;marker-start:none;marker-end:none"
         transform="matrix(0.4,0,0,0.4,2.96,0.4)"
         inkscape:connector-curvature="0" />
    </marker>
    <marker
       inkscape:stockid="Arrow2Send"
       orient="auto"
       refY="0"
       refX="0"
       id="Arrow2Send"
       style="overflow:visible">
      <path
         id="path4471"
         style="font-size:12px;fill-rule:evenodd;stroke-width:0.625;stroke-linejoin:round"
         d="M 8.7185878,4.0337352 -2.2072895,0.01601326 8.7185884,-4.0017078 c -1.7454984,2.3720609 -1.7354408,5.6174519 -6e-7,8.035443 z"
         transform="matrix(-0.3,0,0,-0.3,0.69,0)"
         inkscape:connector-curvature="0" />
    </marker>
    <marker
       inkscape:stockid="Arrow1Lend"
       orient="auto"
       refY="0"
       refX="0"
       id="Arrow1Lend"
       style="overflow:visible">
      <path
         id="path4441"
         d="M 0,0 5,-5 -12.5,0 5,5 0,0 z"
         style="fill-rule:evenodd;stroke:#000000;stroke-width:1pt;marker-start:none"
         transform="matrix(-0.8,0,0,-0.8,-10,0)"
         inkscape:connector-curvature="0" />
    </marker>
    <marker
       inkscape:stockid="Arrow1Lstart"
       orient="auto"
       refY="0"
       refX="0"
       id="Arrow1Lstart"
       style="overflow:visible">
      <path
         id="path4438"
         d="M 0,0 5,-5 -12.5,0 5,5 0,0 z"
         style="fill-rule:evenodd;stroke:#000000;stroke-width:1pt;marker-start:none"
         transform="matrix(0.8,0,0,0.8,10,0)"
         inkscape:connector-curvature="0" />
    </marker>
    <inkscape:perspective
       sodipodi:type="inkscape:persp3d"
       inkscape:vp_x="0 : 1000 : 1"
       inkscape:vp_y="0 : 1000 : 0"
       inkscape:vp_z="2000 : 1000 : 1"
       inkscape:persp3d-origin="1000 : 666.66667 : 1"
       id="perspective3865" />
    <marker
       inkscape:stockid="DotM"
       orient="auto"
       refY="0"
       refX="0"
       id="DotM-8"
       style="overflow:visible">
      <path
         inkscape:connector-curvature="0"
         id="path4503-5"
         d="m -2.5,-1 c 0,2.76 -2.24,5 -5,5 -2.76,0 -5,-2.24 -5,-5 0,-2.76 2.24,-5 5,-5 2.76,0 5,2.24 5,5 z"
         style="fill-rule:evenodd;stroke:#000000;stroke-width:1pt;marker-start:none;marker-end:none"
         transform="matrix(0.4,0,0,0.4,2.96,0.4)" />
    </marker>
    <marker
       inkscape:stockid="DotM"
       orient="auto"
       refY="0"
       refX="0"
       id="marker6567"
       style="overflow:visible">
      <path
         inkscape:connector-curvature="0"
         id="path6569"
         d="m -2.5,-1 c 0,2.76 -2.24,5 -5,5 -2.76,0 -5,-2.24 -5,-5 0,-2.76 2.24,-5 5,-5 2.76,0 5,2.24 5,5 z"
         style="fill-rule:evenodd;stroke:#000000;stroke-width:1pt;marker-start:none;marker-end:none"
         transform="matrix(0.4,0,0,0.4,2.96,0.4)" />
    </marker>
    <marker
       inkscape:stockid="SquareM"
       orient="auto"
       refY="0"
       refX="0"
       id="SquareM-6"
       style="overflow:visible">
      <path
         inkscape:connector-curvature="0"
         id="path4512-1"
         d="M -5,-5 -5,5 5,5 5,-5 -5,-5 z"
         style="fill-rule:evenodd;stroke:#000000;stroke-width:1pt;marker-start:none"
         transform="scale(0.4,0.4)" />
    </marker>
    <marker
       inkscape:stockid="DotM"
       orient="auto"
       refY="0"
       refX="0"
       id="marker6567-8"
       style="overflow:visible">
      <path
         inkscape:connector-curvature="0"
         id="path6569-9"
         d="m -2.5,-1 c 0,2.76 -2.24,5 -5,5 -2.76,0 -5,-2.24 -5,-5 0,-2.76 2.24,-5 5,-5 2.76,0 5,2.24 5,5 z"
         style="fill-rule:evenodd;stroke:#000000;stroke-width:1pt;marker-start:none;marker-end:none"
         transform="matrix(0.4,0,0,0.4,2.96,0.4)" />
    </marker>
    <marker
       inkscape:stockid="SquareM"
       orient="auto"
       refY="0"
       refX="0"
       id="marker11288"
       style="overflow:visible">
      <path
         inkscape:connector-curvature="0"
         id="path11290"
         d="M -5,-5 -5,5 5,5 5,-5 -5,-5 z"
         style="fill-rule:evenodd;stroke:#000000;stroke-width:1pt;marker-start:none"
         transform="scale(0.4,0.4)" />
    </marker>
  </defs>
  <sodipodi:namedview
     id="base"
     pagecolor="#ffffff"
     bordercolor="#666666"
     borderopacity="1.0"
     inkscape:pageopacity="0.0"
     inkscape:pageshadow="2"
     inkscape:zoom="0.47375082"
     inkscape:cx="1051.3726"
     inkscape:cy="944.66106"
     inkscape:document-units="px"
     inkscape:current-layer="layer1"
     showgrid="false"
     showborder="true"
     borderlayer="false"
     inkscape:showpageshadow="false"
     fit-margin-top="0"
     fit-margin-left="0"
     fit-margin-right="0"
     fit-margin-bottom="0"
     showguides="false"
     objecttolerance="10000"
     inkscape:guide-bbox="true"
     inkscape:window-width="1680"
     inkscape:window-height="984"
     inkscape:window-x="-8"
     inkscape:window-y="-8"
     inkscape:window-maximized="1">
    <inkscape:grid
       type="xygrid"
       id="grid2985"
       empspacing="5"
       visible="true"
       enabled="true"
       snapvisiblegridlinesonly="true" />
    <sodipodi:guide
       orientation="1,0"
       position="182.5,982.50003"
       id="guide4202" />
    <sodipodi:guide
       orientation="0,1"
       position="982.5,1782.5"
       id="guide4204" />
    <sodipodi:guide
       orientation="1,0"
       position="1782.5,982.50003"
       id="guide4206" />
    <sodipodi:guide
       orientation="0,1"
       position="982.5,182.50003"
       id="guide4208" />
    <sodipodi:guide
       orientation="1,0"
       position="582.5,982.50003"
       id="guide4394" />
    <sodipodi:guide
       orientation="1,0"
       position="1382.5,982.50003"
       id="guide4396" />
    <sodipodi:guide
       orientation="0,1"
       position="982.5,1382.5"
       id="guide4398" />
    <sodipodi:guide
       orientation="0,1"
       position="982.5,582.50003"
       id="guide4400" />
    <sodipodi:guide
       orientation="1,0"
       position="982.5,1772.5"
       id="guide16680" />
    <sodipodi:guide
       orientation="-0.70710678,0.70710678"
       position="657.5,1306.5"
       id="guide16682" />
    <sodipodi:guide
       orientation="0,1"
       position="562.5,982.50003"
       id="guide16684" />
    <sodipodi:guide
       orientation="-0.70710678,0.70710678"
       position="982.5,982.50003"
       id="guide16686" />
    <sodipodi:guide
       orientation="0.70710678,0.70710678"
       position="982.5,982.50003"
       id="guide16688" />
    <sodipodi:guide
       orientation="-0.70710678,0.70710678"
       position="1307.5,657.50003"
       id="guide16690" />
    <sodipodi:guide
       orientation="0.70710678,0.70710678"
       position="1307.5,1307.5"
       id="guide16692" />
    <sodipodi:guide
       orientation="0.70710678,0.70710678"
       position="657.5,657.50003"
       id="guide16694" />
  </sodipodi:namedview>
  <metadata
     id="metadata7">
    <rdf:RDF>
      <cc:Work
         rdf:about="">
        <dc:format>image/svg+xml</dc:format>
        <dc:type
           rdf:resource="http://purl.org/dc/dcmitype/StillImage" />
        <dc:title />
      </cc:Work>
    </rdf:RDF>
  </metadata>
  <g
     inkscape:label="Layer 1"
     inkscape:groupmode="layer"
     id="layer1"
     transform="translate(-17.5,930.13783)">
    <path
       sodipodi:type="star"
       style="fill:none;stroke:#000000;stroke-width:10;stroke-linecap:butt;stroke-linejoin:miter;stroke-miterlimit:4;stroke-opacity:1;stroke-dasharray:none"
       id="path3004"
       sodipodi:sides="5"
       sodipodi:cx="1000"
       sodipodi:cy="80"
       sodipodi:r1="80"
       sodipodi:r2="64.721359"
       sodipodi:arg1="-1.5707963"
       sodipodi:arg2="-0.9424778"
       inkscape:flatsided="true"
       inkscape:rounded="0"
       inkscape:randomized="0"
       d="m 1000,0 76.0845,55.278642 -29.0617,89.442718 -94.04562,0 -29.0617,-89.442722 z"
       transform="translate(0,-927.63783)"
       inkscape:transform-center-y="-7.6393202" />
    <path
       sodipodi:type="star"
       style="fill:none;stroke:#000000;stroke-width:10;stroke-linecap:butt;stroke-linejoin:miter;stroke-miterlimit:4;stroke-opacity:1;stroke-dasharray:none"
       id="path3779"
       sodipodi:sides="5"
       sodipodi:cx="1000"
       sodipodi:cy="2000"
       sodipodi:r1="80"
       sodipodi:r2="64.721359"
       sodipodi:arg1="1.5707963"
       sodipodi:arg2="2.1991149"
       inkscape:flatsided="true"
       inkscape:rounded="0"
       inkscape:randomized="0"
       d="m 1000,2080 -76.08452,-55.2786 29.0617,-89.4428 94.04562,0 29.0617,89.4428 z"
       transform="translate(-2.1435917e-6,-1047.6378)"
       inkscape:transform-center-y="7.6393202" />
    <path
       transform="matrix(0,-1,1,0,20,1052.3622)"
       sodipodi:type="star"
       style="fill:none;stroke:#000000;stroke-width:10;stroke-linecap:butt;stroke-linejoin:miter;stroke-miterlimit:4;stroke-opacity:1;stroke-dasharray:none"
       id="path3004-1"
       sodipodi:sides="5"
       sodipodi:cx="1000"
       sodipodi:cy="80"
       sodipodi:r1="80"
       sodipodi:r2="64.721359"
       sodipodi:arg1="-1.5707963"
       sodipodi:arg2="-0.9424778"
       inkscape:flatsided="true"
       inkscape:rounded="0"
       inkscape:randomized="0"
       d="m 1000,0 76.0845,55.278642 -29.0617,89.442718 -94.04562,0 -29.0617,-89.442722 z"
       inkscape:transform-center-y="2.873261e-005"
       inkscape:transform-center-x="7.6393202" />
    <path
       transform="matrix(0,1,-1,0,1980,-947.63783)"
       sodipodi:type="star"
       style="fill:none;stroke:#000000;stroke-width:10;stroke-linecap:butt;stroke-linejoin:miter;stroke-miterlimit:4;stroke-opacity:1;stroke-dasharray:none"
       id="path3004-7"
       sodipodi:sides="5"
       sodipodi:cx="1000"
       sodipodi:cy="80"
       sodipodi:r1="80"
       sodipodi:r2="64.721359"
       sodipodi:arg1="-1.5707963"
       sodipodi:arg2="-0.9424778"
       inkscape:flatsided="true"
       inkscape:rounded="0"
       inkscape:randomized="0"
       d="m 1000,0 76.0845,55.278642 -29.0617,89.442718 -94.04562,0 -29.0617,-89.442722 z"
       inkscape:transform-center-x="-7.6393189" />
    <path
       sodipodi:type="arc"
       style="fill:none;stroke:#000000;stroke-width:10;stroke-miterlimit:4;stroke-opacity:1;stroke-dasharray:none"
       id="path3808"
       sodipodi:cx="1000"
       sodipodi:cy="1000"
       sodipodi:rx="800"
       sodipodi:ry="800"
       d="m 1800,1000 c 0,441.8278 -358.1722,800 -800,800 -441.8278,0 -800,-358.1722 -800,-800 0,-441.8278 358.1722,-800 800,-800 441.8278,0 800,358.1722 800,800 z"
       transform="translate(0,-947.63783)" />
    <path
       transform="matrix(0.70710678,0.70710678,-0.70710678,0.70710678,992.8932,-1354.7446)"
       sodipodi:type="star"
       style="fill:none;stroke:#000000;stroke-width:10.00000002;stroke-linecap:butt;stroke-linejoin:miter;stroke-miterlimit:4;stroke-opacity:1;stroke-dasharray:none"
       id="path3004-7-4"
       sodipodi:sides="5"
       sodipodi:cx="1000"
       sodipodi:cy="80"
       sodipodi:r1="80"
       sodipodi:r2="64.721359"
       sodipodi:arg1="-1.5707963"
       sodipodi:arg2="-0.9424778"
       inkscape:flatsided="true"
       inkscape:rounded="0"
       inkscape:randomized="0"
       d="m 1000,0 76.0845,55.278642 -29.0617,89.442718 -94.04562,0 -29.0617,-89.442722 z"
       inkscape:transform-center-x="3.8672364"
       inkscape:transform-center-y="3.8672937" />
    <path
       transform="matrix(0.70710678,-0.70710678,0.70710678,0.70710678,-407.10678,59.468952)"
       sodipodi:type="star"
       style="fill:none;stroke:#000000;stroke-width:10.00000002;stroke-linecap:butt;stroke-linejoin:miter;stroke-miterlimit:4;stroke-opacity:1;stroke-dasharray:none"
       id="path3004-17"
       sodipodi:sides="5"
       sodipodi:cx="1000"
       sodipodi:cy="80"
       sodipodi:r1="80"
       sodipodi:r2="64.721359"
       sodipodi:arg1="-1.5707963"
       sodipodi:arg2="-0.9424778"
       inkscape:flatsided="true"
       inkscape:rounded="0"
       inkscape:randomized="0"
       d="m 1000,0 76.0845,55.278642 -29.0617,89.442718 -94.04562,0 -29.0617,-89.442722 z"
       inkscape:transform-center-y="3.8672741"
       inkscape:transform-center-x="-3.8672737" />
    <path
       sodipodi:type="star"
       style="fill:none;stroke:#000000;stroke-width:10.00000002;stroke-linecap:butt;stroke-linejoin:miter;stroke-miterlimit:4;stroke-opacity:1;stroke-dasharray:none"
       id="path3779-7"
       sodipodi:sides="5"
       sodipodi:cx="1000"
       sodipodi:cy="2000"
       sodipodi:r1="80"
       sodipodi:r2="64.721359"
       sodipodi:arg1="1.5707963"
       sodipodi:arg2="2.1991149"
       inkscape:flatsided="true"
       inkscape:rounded="0"
       inkscape:randomized="0"
       d="m 1000,2080 -76.08452,-55.2786 29.0617,-89.4428 94.04562,0 29.0617,89.4428 z"
       transform="matrix(0.70710678,0.70710678,-0.70710678,0.70710678,1063.6753,-1425.5267)"
       inkscape:transform-center-y="-3.8673697"
       inkscape:transform-center-x="-3.8673927" />
    <path
       transform="matrix(-0.70710678,0.70710678,-0.70710678,-0.70710678,2407.1068,45.255402)"
       sodipodi:type="star"
       style="fill:none;stroke:#000000;stroke-width:10.00000002;stroke-linecap:butt;stroke-linejoin:miter;stroke-miterlimit:4;stroke-opacity:1;stroke-dasharray:none"
       id="path3004-17-6"
       sodipodi:sides="5"
       sodipodi:cx="1000"
       sodipodi:cy="80"
       sodipodi:r1="80"
       sodipodi:r2="64.721359"
       sodipodi:arg1="-1.5707963"
       sodipodi:arg2="-0.9424778"
       inkscape:flatsided="true"
       inkscape:rounded="0"
       inkscape:randomized="0"
       d="m 1000,0 76.0845,55.278642 -29.0617,89.442718 -94.04562,0 -29.0617,-89.442722 z"
       inkscape:transform-center-y="-3.8672743"
       inkscape:transform-center-x="3.8672351" />
    <path
       sodipodi:type="arc"
       style="fill:#40007f;fill-opacity:1;stroke:#000000;stroke-width:10;stroke-miterlimit:4;stroke-opacity:1;stroke-dasharray:none"
       id="path4118"
       sodipodi:cx="1000"
       sodipodi:cy="80"
       sodipodi:rx="60"
       sodipodi:ry="60"
       d="m 1060,80 c 0,33.13708 -26.8629,60 -60,60 -33.13708,0 -60,-26.86292 -60,-60 0,-33.137085 26.86292,-60 60,-60 33.1371,0 60,26.862915 60,60 z"
       transform="translate(0,-927.63783)" />
    <path
       transform="matrix(0.70710678,-0.70710678,0.70710678,0.70710678,-406.10173,60.474001)"
       sodipodi:type="arc"
       style="fill:#40007f;fill-opacity:1;stroke:#000000;stroke-width:10.00000002;stroke-miterlimit:4;stroke-opacity:1;stroke-dasharray:none"
       id="path4118-1"
       sodipodi:cx="1000"
       sodipodi:cy="80"
       sodipodi:rx="60"
       sodipodi:ry="60"
       d="m 1060,80 c 0,33.13708 -26.8629,60 -60,60 -33.13708,0 -60,-26.86292 -60,-60 0,-33.137085 26.86292,-60 60,-60 33.1371,0 60,26.862915 60,60 z" />
    <path
       transform="translate(-900,-27.63783)"
       sodipodi:type="arc"
       style="fill:#40007f;fill-opacity:1;stroke:#000000;stroke-width:10;stroke-miterlimit:4;stroke-opacity:1;stroke-dasharray:none"
       id="path4118-4"
       sodipodi:cx="1000"
       sodipodi:cy="80"
       sodipodi:rx="60"
       sodipodi:ry="60"
       d="m 1060,80 c 0,33.13708 -26.8629,60 -60,60 -33.13708,0 -60,-26.86292 -60,-60 0,-33.137085 26.86292,-60 60,-60 33.1371,0 60,26.862915 60,60 z" />
    <path
       transform="translate(0,872.36217)"
       sodipodi:type="arc"
       style="fill:#40007f;fill-opacity:1;stroke:#000000;stroke-width:10;stroke-miterlimit:4;stroke-opacity:1;stroke-dasharray:none"
       id="path4118-2"
       sodipodi:cx="1000"
       sodipodi:cy="80"
       sodipodi:rx="60"
       sodipodi:ry="60"
       d="m 1060,80 c 0,33.13708 -26.8629,60 -60,60 -33.13708,0 -60,-26.86292 -60,-60 0,-33.137085 26.86292,-60 60,-60 33.1371,0 60,26.862915 60,60 z" />
    <path
       transform="translate(900,-27.63783)"
       sodipodi:type="arc"
       style="fill:#40007f;fill-opacity:1;stroke:#000000;stroke-width:10;stroke-miterlimit:4;stroke-opacity:1;stroke-dasharray:none"
       id="path4118-3"
       sodipodi:cx="1000"
       sodipodi:cy="80"
       sodipodi:rx="60"
       sodipodi:ry="60"
       d="m 1060,80 c 0,33.13708 -26.8629,60 -60,60 -33.13708,0 -60,-26.86292 -60,-60 0,-33.137085 26.86292,-60 60,-60 33.1371,0 60,26.862915 60,60 z" />
    <path
       transform="matrix(0.70710678,-0.70710678,0.70710678,0.70710678,878.75108,60.474001)"
       sodipodi:type="arc"
       style="fill:#40007f;fill-opacity:1;stroke:#000000;stroke-width:10.00000002;stroke-miterlimit:4;stroke-opacity:1;stroke-dasharray:none"
       id="path4118-1-2"
       sodipodi:cx="1000"
       sodipodi:cy="80"
       sodipodi:rx="60"
       sodipodi:ry="60"
       d="m 1060,80 c 0,33.13708 -26.8629,60 -60,60 -33.13708,0 -60,-26.86292 -60,-60 0,-33.137085 26.86292,-60 60,-60 33.1371,0 60,26.862915 60,60 z" />
    <path
       transform="matrix(0.70710678,-0.70710678,0.70710678,0.70710678,878.75108,1345.3268)"
       sodipodi:type="arc"
       style="fill:#40007f;fill-opacity:1;stroke:#000000;stroke-width:10.00000002;stroke-miterlimit:4;stroke-opacity:1;stroke-dasharray:none"
       id="path4118-1-21"
       sodipodi:cx="1000"
       sodipodi:cy="80"
       sodipodi:rx="60"
       sodipodi:ry="60"
       d="m 1060,80 c 0,33.13708 -26.8629,60 -60,60 -33.13708,0 -60,-26.86292 -60,-60 0,-33.137085 26.86292,-60 60,-60 33.1371,0 60,26.862915 60,60 z" />
    <path
       transform="matrix(0.70710678,-0.70710678,0.70710678,0.70710678,-406.10173,1345.3268)"
       sodipodi:type="arc"
       style="fill:#40007f;fill-opacity:1;stroke:#000000;stroke-width:10.00000002;stroke-miterlimit:4;stroke-opacity:1;stroke-dasharray:none"
       id="path4118-1-6"
       sodipodi:cx="1000"
       sodipodi:cy="80"
       sodipodi:rx="60"
       sodipodi:ry="60"
       d="m 1060,80 c 0,33.13708 -26.8629,60 -60,60 -33.13708,0 -60,-26.86292 -60,-60 0,-33.137085 26.86292,-60 60,-60 33.1371,0 60,26.862915 60,60 z" />
    <path
       style="fill:none;stroke:#000000;stroke-width:13;stroke-linecap:butt;stroke-linejoin:miter;stroke-miterlimit:4;stroke-opacity:1;stroke-dasharray:none"
       d="m 1000,1800 c 0,0 -400,-400 -400,-800 0,-400 400,-800 400,-800 0,0 400,400 400,800 0,400 -400,800 -400,800 z"
       id="path4421"
       inkscape:connector-curvature="0"
       transform="translate(0,-947.63783)" />
    <path
       style="fill:none;stroke:#000000;stroke-width:13;stroke-linecap:butt;stroke-linejoin:miter;stroke-miterlimit:4;stroke-opacity:1;stroke-dasharray:none"
       d="m 200,1000 c 0,0 400,-400 800,-400 400,0 800,400 800,400 0,0 -400,400 -800,400 -400,0 -800,-400 -800,-400"
       id="path4423"
       inkscape:connector-curvature="0"
       transform="translate(0,-947.63783)" />
    <flowRoot
       xml:space="preserve"
       id="flowRoot11403"
       style="font-size:40px;font-style:normal;font-weight:normal;line-height:125%;letter-spacing:0px;word-spacing:0px;fill:#000000;fill-opacity:1;stroke:none;font-family:Sans;stroke-width:1;stroke-miterlimit:4;stroke-dasharray:none"><flowRegion
         id="flowRegion11405"><rect
           id="rect11407"
           width="25.728539"
           height="370.15897"
           x="745.29767"
           y="808.18768"
           style="stroke-width:1;stroke-miterlimit:4;stroke-dasharray:none" /></flowRegion><flowPara
         id="flowPara11409" /></flowRoot>    <path
       style="fill:none;stroke:#000000;stroke-width:40;stroke-linecap:butt;stroke-linejoin:miter;stroke-miterlimit:4;stroke-opacity:1;stroke-dasharray:none;marker-start:none;marker-end:url(#Arrow2Send)"
       d="m 1000,600 0,-440"
       id="path16696"
       inkscape:connector-curvature="0"
       transform="translate(0,-947.63783)" />
    <path
       style="fill:none;stroke:#000000;stroke-width:40;stroke-linecap:butt;stroke-linejoin:miter;stroke-miterlimit:4;stroke-opacity:1;stroke-dasharray:none;marker-mid:none;marker-end:url(#Arrow2Send)"
       d="M 1325,675 1600,400"
       id="path16700"
       inkscape:connector-curvature="0"
       transform="translate(0,-947.63783)" />
    <path
       style="fill:none;stroke:#000000;stroke-width:1;stroke-linecap:butt;stroke-linejoin:miter;stroke-opacity:1;stroke-miterlimit:4;stroke-dasharray:none"
       d="m 1400,1000 440,0"
       id="path16702"
       inkscape:connector-curvature="0"
       transform="translate(0,-947.63783)" />
    <path
       style="color:#000000;fill:none;stroke:#000000;stroke-width:40;stroke-linecap:butt;stroke-linejoin:miter;stroke-miterlimit:4;stroke-opacity:1;stroke-dasharray:none;stroke-dashoffset:0;marker:none;marker-end:url(#Arrow2Send);visibility:visible;display:inline;overflow:visible;enable-background:accumulate"
       d="m 1400,52.36217 440,0"
       id="path16704"
       inkscape:connector-curvature="0" />
    <path
       style="color:#000000;fill:none;stroke:#000000;stroke-width:40;stroke-linecap:butt;stroke-linejoin:miter;stroke-miterlimit:4;stroke-opacity:1;stroke-dasharray:none;stroke-dashoffset:0;marker:none;marker-end:url(#Arrow2Send);visibility:visible;display:inline;overflow:visible;enable-background:accumulate"
       d="m 1000,1400 0,440"
       id="path16706"
       inkscape:connector-curvature="0"
       transform="translate(0,-947.63783)" />
    <path
       style="color:#000000;fill:none;stroke:#000000;stroke-width:40;stroke-linecap:butt;stroke-linejoin:miter;stroke-miterlimit:4;stroke-opacity:1;stroke-dasharray:none;stroke-dashoffset:0;marker:none;marker-start:url(#Arrow2Sstart);visibility:visible;display:inline;overflow:visible;enable-background:accumulate"
       d="m 160,1000 440,0"
       id="path16708"
       inkscape:connector-curvature="0"
       transform="translate(0,-947.63783)" />
    <path
       style="color:#000000;fill:none;stroke:#000000;stroke-width:40;stroke-linecap:butt;stroke-linejoin:miter;stroke-miterlimit:4;stroke-opacity:1;stroke-dasharray:none;stroke-dashoffset:0;marker:none;marker-end:url(#Arrow2Send);visibility:visible;display:inline;overflow:visible;enable-background:accumulate"
       d="M 675,675 400,400"
       id="path16710"
       inkscape:connector-curvature="0"
       transform="translate(0,-947.63783)" />
    <path
       style="color:#000000;fill:none;stroke:#000000;stroke-width:40;stroke-linecap:butt;stroke-linejoin:miter;stroke-miterlimit:4;stroke-opacity:1;stroke-dasharray:none;stroke-dashoffset:0;marker:none;marker-start:url(#Arrow2Sstart);visibility:visible;display:inline;overflow:visible;enable-background:accumulate"
       d="M 400,1600 675,1325"
       id="path16712"
       inkscape:connector-curvature="0"
       transform="translate(0,-947.63783)" />
    <path
       style="color:#000000;fill:none;stroke:#000000;stroke-width:40;stroke-linecap:butt;stroke-linejoin:miter;stroke-miterlimit:4;stroke-opacity:1;stroke-dasharray:none;stroke-dashoffset:0;marker:none;marker-end:url(#Arrow2Send);visibility:visible;display:inline;overflow:visible;enable-background:accumulate"
       d="m 1327,1325 273,275"
       id="path16714"
       inkscape:connector-curvature="0"
       transform="translate(0,-947.63783)" />
  </g>
</svg>
