<?xml version="1.0" encoding="UTF-8" standalone="no"?>
<!-- Created with Inkscape (http://www.inkscape.org/) -->

<svg
   xmlns:osb="http://www.openswatchbook.org/uri/2009/osb"
   xmlns:dc="http://purl.org/dc/elements/1.1/"
   xmlns:cc="http://creativecommons.org/ns#"
   xmlns:rdf="http://www.w3.org/1999/02/22-rdf-syntax-ns#"
   xmlns:svg="http://www.w3.org/2000/svg"
   xmlns="http://www.w3.org/2000/svg"
   xmlns:sodipodi="http://sodipodi.sourceforge.net/DTD/sodipodi-0.dtd"
   xmlns:inkscape="http://www.inkscape.org/namespaces/inkscape"
   width="2000"
   height="2000"
   id="svg2"
   version="1.1"
   inkscape:version="0.48.2 r9819"
   sodipodi:docname="Thane Thought - Something living in the sink.svg">
  <defs
     id="defs4">
    <marker
       inkscape:stockid="Arrow2Sstart"
       orient="auto"
       refY="0.0"
       refX="0.0"
       id="Arrow2Sstart"
       style="overflow:visible">
      <path
         id="path4468"
         style="font-size:12.0;fill-rule:evenodd;stroke-width:0.62500000;stroke-linejoin:round"
         d="M 8.7185878,4.0337352 L -2.2072895,0.016013256 L 8.7185884,-4.0017078 C 6.9730900,-1.6296469 6.9831476,1.6157441 8.7185878,4.0337352 z "
         transform="scale(0.3) translate(-2.3,0)" />
    </marker>
    <marker
       inkscape:stockid="Arrow1Sstart"
       orient="auto"
       refY="0.0"
       refX="0.0"
       id="Arrow1Sstart"
       style="overflow:visible">
      <path
         id="path4450"
         d="M 0.0,0.0 L 5.0,-5.0 L -12.5,0.0 L 5.0,5.0 L 0.0,0.0 z "
         style="fill-rule:evenodd;stroke:#000000;stroke-width:1.0pt;marker-start:none"
         transform="scale(0.2) translate(6,0)" />
    </marker>
    <linearGradient
       id="linearGradient16716"
       osb:paint="solid">
      <stop
         style="stop-color:#000000;stop-opacity:1;"
         offset="0"
         id="stop16718" />
    </linearGradient>
    <marker
       inkscape:stockid="DiamondM"
       orient="auto"
       refY="0.0"
       refX="0.0"
       id="DiamondM"
       style="overflow:visible">
      <path
         id="path4521"
         d="M 0,-7.0710768 L -7.0710894,0 L 0,7.0710589 L 7.0710462,0 L 0,-7.0710768 z "
         style="fill-rule:evenodd;stroke:#000000;stroke-width:1.0pt;marker-start:none"
         transform="scale(0.4)" />
    </marker>
    <marker
       inkscape:stockid="SquareL"
       orient="auto"
       refY="0.0"
       refX="0.0"
       id="SquareL"
       style="overflow:visible">
      <path
         id="path4509"
         d="M -5.0,-5.0 L -5.0,5.0 L 5.0,5.0 L 5.0,-5.0 L -5.0,-5.0 z "
         style="fill-rule:evenodd;stroke:#000000;stroke-width:1.0pt;marker-start:none"
         transform="scale(0.8)" />
    </marker>
    <marker
       inkscape:stockid="DotS"
       orient="auto"
       refY="0.0"
       refX="0.0"
       id="DotS"
       style="overflow:visible">
      <path
         id="path4506"
         d="M -2.5,-1.0 C -2.5,1.7600000 -4.7400000,4.0 -7.5,4.0 C -10.260000,4.0 -12.5,1.7600000 -12.5,-1.0 C -12.5,-3.7600000 -10.260000,-6.0 -7.5,-6.0 C -4.7400000,-6.0 -2.5,-3.7600000 -2.5,-1.0 z "
         style="fill-rule:evenodd;stroke:#000000;stroke-width:1.0pt;marker-start:none;marker-end:none"
         transform="scale(0.2) translate(7.4, 1)" />
    </marker>
    <marker
       inkscape:stockid="SquareS"
       orient="auto"
       refY="0.0"
       refX="0.0"
       id="SquareS"
       style="overflow:visible">
      <path
         id="path4515"
         d="M -5.0,-5.0 L -5.0,5.0 L 5.0,5.0 L 5.0,-5.0 L -5.0,-5.0 z "
         style="fill-rule:evenodd;stroke:#000000;stroke-width:1.0pt;marker-start:none"
         transform="scale(0.2)" />
    </marker>
    <marker
       inkscape:stockid="SquareM"
       orient="auto"
       refY="0.0"
       refX="0.0"
       id="SquareM"
       style="overflow:visible">
      <path
         id="path4512"
         d="M -5.0,-5.0 L -5.0,5.0 L 5.0,5.0 L 5.0,-5.0 L -5.0,-5.0 z "
         style="fill-rule:evenodd;stroke:#000000;stroke-width:1.0pt;marker-start:none"
         transform="scale(0.4)" />
    </marker>
    <marker
       style="overflow:visible"
       id="DistanceStart"
       refX="0.0"
       refY="0.0"
       orient="auto"
       inkscape:stockid="DistanceStart">
      <g
         id="g2300">
        <path
           style="fill:none;stroke:#ffffff;stroke-width:1.15;stroke-linecap:square"
           d="M 0,0 L 2,0"
           id="path2306" />
        <path
           style="fill:#000000;fill-rule:evenodd;stroke:none"
           d="M 0,0 L 13,4 L 9,0 13,-4 L 0,0 z "
           id="path2302" />
        <path
           style="fill:none;stroke:#000000;stroke-width:1;stroke-linecap:square"
           d="M 0,-4 L 0,40"
           id="path2304" />
      </g>
    </marker>
    <marker
       inkscape:stockid="DotM"
       orient="auto"
       refY="0.0"
       refX="0.0"
       id="DotM"
       style="overflow:visible">
      <path
         id="path4503"
         d="M -2.5,-1.0 C -2.5,1.7600000 -4.7400000,4.0 -7.5,4.0 C -10.260000,4.0 -12.5,1.7600000 -12.5,-1.0 C -12.5,-3.7600000 -10.260000,-6.0 -7.5,-6.0 C -4.7400000,-6.0 -2.5,-3.7600000 -2.5,-1.0 z "
         style="fill-rule:evenodd;stroke:#000000;stroke-width:1.0pt;marker-start:none;marker-end:none"
         transform="scale(0.4) translate(7.4, 1)" />
    </marker>
    <marker
       inkscape:stockid="Arrow2Send"
       orient="auto"
       refY="0.0"
       refX="0.0"
       id="Arrow2Send"
       style="overflow:visible;">
      <path
         id="path4471"
         style="font-size:12.0;fill-rule:evenodd;stroke-width:0.62500000;stroke-linejoin:round;"
         d="M 8.7185878,4.0337352 L -2.2072895,0.016013256 L 8.7185884,-4.0017078 C 6.9730900,-1.6296469 6.9831476,1.6157441 8.7185878,4.0337352 z "
         transform="scale(0.3) rotate(180) translate(-2.3,0)" />
    </marker>
    <marker
       inkscape:stockid="Arrow1Lend"
       orient="auto"
       refY="0.0"
       refX="0.0"
       id="Arrow1Lend"
       style="overflow:visible;">
      <path
         id="path4441"
         d="M 0.0,0.0 L 5.0,-5.0 L -12.5,0.0 L 5.0,5.0 L 0.0,0.0 z "
         style="fill-rule:evenodd;stroke:#000000;stroke-width:1.0pt;marker-start:none;"
         transform="scale(0.8) rotate(180) translate(12.5,0)" />
    </marker>
    <marker
       inkscape:stockid="Arrow1Lstart"
       orient="auto"
       refY="0.0"
       refX="0.0"
       id="Arrow1Lstart"
       style="overflow:visible">
      <path
         id="path4438"
         d="M 0.0,0.0 L 5.0,-5.0 L -12.5,0.0 L 5.0,5.0 L 0.0,0.0 z "
         style="fill-rule:evenodd;stroke:#000000;stroke-width:1.0pt;marker-start:none"
         transform="scale(0.8) translate(12.5,0)" />
    </marker>
    <inkscape:perspective
       sodipodi:type="inkscape:persp3d"
       inkscape:vp_x="0 : 1000 : 1"
       inkscape:vp_y="0 : 1000 : 0"
       inkscape:vp_z="2000 : 1000 : 1"
       inkscape:persp3d-origin="1000 : 666.66667 : 1"
       id="perspective3865" />
    <marker
       inkscape:stockid="DotM"
       orient="auto"
       refY="0"
       refX="0"
       id="DotM-8"
       style="overflow:visible">
      <path
         inkscape:connector-curvature="0"
         id="path4503-5"
         d="m -2.5,-1 c 0,2.76 -2.24,5 -5,5 -2.76,0 -5,-2.24 -5,-5 0,-2.76 2.24,-5 5,-5 2.76,0 5,2.24 5,5 z"
         style="fill-rule:evenodd;stroke:#000000;stroke-width:1pt;marker-start:none;marker-end:none"
         transform="matrix(0.4,0,0,0.4,2.96,0.4)" />
    </marker>
    <marker
       inkscape:stockid="DotM"
       orient="auto"
       refY="0"
       refX="0"
       id="marker6567"
       style="overflow:visible">
      <path
         inkscape:connector-curvature="0"
         id="path6569"
         d="m -2.5,-1 c 0,2.76 -2.24,5 -5,5 -2.76,0 -5,-2.24 -5,-5 0,-2.76 2.24,-5 5,-5 2.76,0 5,2.24 5,5 z"
         style="fill-rule:evenodd;stroke:#000000;stroke-width:1pt;marker-start:none;marker-end:none"
         transform="matrix(0.4,0,0,0.4,2.96,0.4)" />
    </marker>
    <marker
       inkscape:stockid="SquareM"
       orient="auto"
       refY="0"
       refX="0"
       id="SquareM-6"
       style="overflow:visible">
      <path
         inkscape:connector-curvature="0"
         id="path4512-1"
         d="M -5,-5 -5,5 5,5 5,-5 -5,-5 z"
         style="fill-rule:evenodd;stroke:#000000;stroke-width:1pt;marker-start:none"
         transform="scale(0.4,0.4)" />
    </marker>
    <marker
       inkscape:stockid="DotM"
       orient="auto"
       refY="0"
       refX="0"
       id="marker6567-8"
       style="overflow:visible">
      <path
         inkscape:connector-curvature="0"
         id="path6569-9"
         d="m -2.5,-1 c 0,2.76 -2.24,5 -5,5 -2.76,0 -5,-2.24 -5,-5 0,-2.76 2.24,-5 5,-5 2.76,0 5,2.24 5,5 z"
         style="fill-rule:evenodd;stroke:#000000;stroke-width:1pt;marker-start:none;marker-end:none"
         transform="matrix(0.4,0,0,0.4,2.96,0.4)" />
    </marker>
    <marker
       inkscape:stockid="SquareM"
       orient="auto"
       refY="0"
       refX="0"
       id="marker11288"
       style="overflow:visible">
      <path
         inkscape:connector-curvature="0"
         id="path11290"
         d="M -5,-5 -5,5 5,5 5,-5 -5,-5 z"
         style="fill-rule:evenodd;stroke:#000000;stroke-width:1pt;marker-start:none"
         transform="scale(0.4,0.4)" />
    </marker>
  </defs>
  <sodipodi:namedview
     id="base"
     pagecolor="#ffffff"
     bordercolor="#666666"
     borderopacity="1.0"
     inkscape:pageopacity="0.0"
     inkscape:pageshadow="2"
     inkscape:zoom="0.47375082"
     inkscape:cx="883.59484"
     inkscape:cy="1046.5936"
     inkscape:document-units="px"
     inkscape:current-layer="layer1"
     showgrid="false"
     showborder="true"
     borderlayer="false"
     inkscape:showpageshadow="false"
     fit-margin-top="0"
     fit-margin-left="0"
     fit-margin-right="0"
     fit-margin-bottom="0"
     showguides="false"
     objecttolerance="10000"
     inkscape:guide-bbox="true"
     inkscape:window-width="1680"
     inkscape:window-height="984"
     inkscape:window-x="-8"
     inkscape:window-y="-8"
     inkscape:window-maximized="1">
    <inkscape:grid
       type="xygrid"
       id="grid2985"
       empspacing="5"
       visible="true"
       enabled="true"
       snapvisiblegridlinesonly="true" />
    <sodipodi:guide
       orientation="1,0"
       position="200,1000"
       id="guide4202" />
    <sodipodi:guide
       orientation="0,1"
       position="1000,1800"
       id="guide4204" />
    <sodipodi:guide
       orientation="1,0"
       position="1800,1000"
       id="guide4206" />
    <sodipodi:guide
       orientation="0,1"
       position="1000,200"
       id="guide4208" />
    <sodipodi:guide
       orientation="1,0"
       position="600,1000"
       id="guide4394" />
    <sodipodi:guide
       orientation="1,0"
       position="1400,1000"
       id="guide4396" />
    <sodipodi:guide
       orientation="0,1"
       position="1000,1400"
       id="guide4398" />
    <sodipodi:guide
       orientation="0,1"
       position="1000,600"
       id="guide4400" />
    <sodipodi:guide
       orientation="1,0"
       position="1000,1790"
       id="guide16680" />
    <sodipodi:guide
       orientation="-0.70710678,0.70710678"
       position="675,1324"
       id="guide16682" />
    <sodipodi:guide
       orientation="0,1"
       position="580,1000"
       id="guide16684" />
    <sodipodi:guide
       orientation="-0.70710678,0.70710678"
       position="1000,1000"
       id="guide16686" />
    <sodipodi:guide
       orientation="0.70710678,0.70710678"
       position="1000,1000"
       id="guide16688" />
    <sodipodi:guide
       orientation="-0.70710678,0.70710678"
       position="1325,675"
       id="guide16690" />
    <sodipodi:guide
       orientation="0.70710678,0.70710678"
       position="1325,1325"
       id="guide16692" />
    <sodipodi:guide
       orientation="0.70710678,0.70710678"
       position="675,675"
       id="guide16694" />
  </sodipodi:namedview>
  <metadata
     id="metadata7">
    <rdf:RDF>
      <cc:Work
         rdf:about="">
        <dc:format>image/svg+xml</dc:format>
        <dc:type
           rdf:resource="http://purl.org/dc/dcmitype/StillImage" />
        <dc:title></dc:title>
      </cc:Work>
    </rdf:RDF>
  </metadata>
  <g
     inkscape:label="Layer 1"
     inkscape:groupmode="layer"
     id="layer1"
     transform="translate(0,947.63783)">
    <path
       style="fill:#404040;stroke:#000000;stroke-width:3;stroke-linecap:butt;stroke-linejoin:miter;stroke-opacity:1;fill-opacity:1;stroke-miterlimit:4;stroke-dasharray:3,3;stroke-dashoffset:0"
       d="m 960,1280 c 0,0 0,-160 160,-160 160,0 160,160 160,160 l -20,0 c 0,0 0,-140 -140,-140 -140,0 -140,140 -140,140 z"
       id="path16674"
       inkscape:connector-curvature="0"
       sodipodi:nodetypes="cscczcc"
       transform="translate(0,-947.63783)" />
    <path
       sodipodi:type="star"
       style="fill:none;stroke:#000000;stroke-width:5;stroke-linecap:butt;stroke-linejoin:miter;stroke-miterlimit:4;stroke-opacity:1;stroke-dasharray:none"
       id="path3004"
       sodipodi:sides="5"
       sodipodi:cx="1000"
       sodipodi:cy="80"
       sodipodi:r1="80"
       sodipodi:r2="64.721359"
       sodipodi:arg1="-1.5707963"
       sodipodi:arg2="-0.9424778"
       inkscape:flatsided="true"
       inkscape:rounded="0"
       inkscape:randomized="0"
       d="m 1000,0 76.0845,55.278642 -29.0617,89.442718 -94.04562,0 -29.0617,-89.442722 z"
       transform="translate(0,-927.63783)"
       inkscape:transform-center-y="-7.6393202" />
    <path
       sodipodi:type="star"
       style="fill:none;stroke:#000000;stroke-width:5;stroke-linecap:butt;stroke-linejoin:miter;stroke-miterlimit:4;stroke-opacity:1;stroke-dasharray:none"
       id="path3779"
       sodipodi:sides="5"
       sodipodi:cx="1000"
       sodipodi:cy="2000"
       sodipodi:r1="80"
       sodipodi:r2="64.721359"
       sodipodi:arg1="1.5707963"
       sodipodi:arg2="2.1991149"
       inkscape:flatsided="true"
       inkscape:rounded="0"
       inkscape:randomized="0"
       d="m 1000,2080 -76.08452,-55.2786 29.0617,-89.4428 94.04562,0 29.0617,89.4428 z"
       transform="translate(-2.1435917e-6,-1047.6378)"
       inkscape:transform-center-y="7.6393202" />
    <path
       transform="matrix(0,-1,1,0,20,1052.3622)"
       sodipodi:type="star"
       style="fill:none;stroke:#000000;stroke-width:5;stroke-linecap:butt;stroke-linejoin:miter;stroke-miterlimit:4;stroke-opacity:1;stroke-dasharray:none"
       id="path3004-1"
       sodipodi:sides="5"
       sodipodi:cx="1000"
       sodipodi:cy="80"
       sodipodi:r1="80"
       sodipodi:r2="64.721359"
       sodipodi:arg1="-1.5707963"
       sodipodi:arg2="-0.9424778"
       inkscape:flatsided="true"
       inkscape:rounded="0"
       inkscape:randomized="0"
       d="m 1000,0 76.0845,55.278642 -29.0617,89.442718 -94.04562,0 -29.0617,-89.442722 z"
       inkscape:transform-center-y="2.873261e-005"
       inkscape:transform-center-x="7.6393202" />
    <path
       transform="matrix(0,1,-1,0,1980,-947.63783)"
       sodipodi:type="star"
       style="fill:none;stroke:#000000;stroke-width:5;stroke-linecap:butt;stroke-linejoin:miter;stroke-miterlimit:4;stroke-opacity:1;stroke-dasharray:none"
       id="path3004-7"
       sodipodi:sides="5"
       sodipodi:cx="1000"
       sodipodi:cy="80"
       sodipodi:r1="80"
       sodipodi:r2="64.721359"
       sodipodi:arg1="-1.5707963"
       sodipodi:arg2="-0.9424778"
       inkscape:flatsided="true"
       inkscape:rounded="0"
       inkscape:randomized="0"
       d="m 1000,0 76.0845,55.278642 -29.0617,89.442718 -94.04562,0 -29.0617,-89.442722 z"
       inkscape:transform-center-x="-7.6393189" />
    <path
       sodipodi:type="arc"
       style="fill:none;stroke:#000000;stroke-width:5;stroke-miterlimit:4;stroke-opacity:1;stroke-dasharray:none"
       id="path3808"
       sodipodi:cx="1000"
       sodipodi:cy="1000"
       sodipodi:rx="800"
       sodipodi:ry="800"
       d="m 1800,1000 a 800,800 0 1 1 -1600,0 800,800 0 1 1 1600,0 z"
       transform="translate(0,-947.63783)" />
    <path
       transform="matrix(0.70710678,0.70710678,-0.70710678,0.70710678,992.8932,-1354.7446)"
       sodipodi:type="star"
       style="fill:none;stroke:#000000;stroke-width:5;stroke-linecap:butt;stroke-linejoin:miter;stroke-miterlimit:4;stroke-opacity:1;stroke-dasharray:none"
       id="path3004-7-4"
       sodipodi:sides="5"
       sodipodi:cx="1000"
       sodipodi:cy="80"
       sodipodi:r1="80"
       sodipodi:r2="64.721359"
       sodipodi:arg1="-1.5707963"
       sodipodi:arg2="-0.9424778"
       inkscape:flatsided="true"
       inkscape:rounded="0"
       inkscape:randomized="0"
       d="m 1000,0 76.0845,55.278642 -29.0617,89.442718 -94.04562,0 -29.0617,-89.442722 z"
       inkscape:transform-center-x="3.8672364"
       inkscape:transform-center-y="3.8672937" />
    <path
       transform="matrix(0.70710678,-0.70710678,0.70710678,0.70710678,-407.10678,59.468952)"
       sodipodi:type="star"
       style="fill:none;stroke:#000000;stroke-width:5;stroke-linecap:butt;stroke-linejoin:miter;stroke-miterlimit:4;stroke-opacity:1;stroke-dasharray:none"
       id="path3004-17"
       sodipodi:sides="5"
       sodipodi:cx="1000"
       sodipodi:cy="80"
       sodipodi:r1="80"
       sodipodi:r2="64.721359"
       sodipodi:arg1="-1.5707963"
       sodipodi:arg2="-0.9424778"
       inkscape:flatsided="true"
       inkscape:rounded="0"
       inkscape:randomized="0"
       d="m 1000,0 76.0845,55.278642 -29.0617,89.442718 -94.04562,0 -29.0617,-89.442722 z"
       inkscape:transform-center-y="3.8672741"
       inkscape:transform-center-x="-3.8672737" />
    <path
       sodipodi:type="star"
       style="fill:none;stroke:#000000;stroke-width:5;stroke-linecap:butt;stroke-linejoin:miter;stroke-miterlimit:4;stroke-opacity:1;stroke-dasharray:none"
       id="path3779-7"
       sodipodi:sides="5"
       sodipodi:cx="1000"
       sodipodi:cy="2000"
       sodipodi:r1="80"
       sodipodi:r2="64.721359"
       sodipodi:arg1="1.5707963"
       sodipodi:arg2="2.1991149"
       inkscape:flatsided="true"
       inkscape:rounded="0"
       inkscape:randomized="0"
       d="m 1000,2080 -76.08452,-55.2786 29.0617,-89.4428 94.04562,0 29.0617,89.4428 z"
       transform="matrix(0.70710678,0.70710678,-0.70710678,0.70710678,1063.6753,-1425.5267)"
       inkscape:transform-center-y="-3.8673697"
       inkscape:transform-center-x="-3.8673927" />
    <path
       transform="matrix(-0.70710678,0.70710678,-0.70710678,-0.70710678,2407.1068,45.255402)"
       sodipodi:type="star"
       style="fill:none;stroke:#000000;stroke-width:5;stroke-linecap:butt;stroke-linejoin:miter;stroke-miterlimit:4;stroke-opacity:1;stroke-dasharray:none"
       id="path3004-17-6"
       sodipodi:sides="5"
       sodipodi:cx="1000"
       sodipodi:cy="80"
       sodipodi:r1="80"
       sodipodi:r2="64.721359"
       sodipodi:arg1="-1.5707963"
       sodipodi:arg2="-0.9424778"
       inkscape:flatsided="true"
       inkscape:rounded="0"
       inkscape:randomized="0"
       d="m 1000,0 76.0845,55.278642 -29.0617,89.442718 -94.04562,0 -29.0617,-89.442722 z"
       inkscape:transform-center-y="-3.8672743"
       inkscape:transform-center-x="3.8672351" />
    <path
       sodipodi:type="arc"
       style="fill:#40007f;fill-opacity:1;stroke:#000000;stroke-width:5;stroke-miterlimit:4;stroke-opacity:1;stroke-dasharray:none"
       id="path4118"
       sodipodi:cx="1000"
       sodipodi:cy="80"
       sodipodi:rx="60"
       sodipodi:ry="60"
       d="m 1060,80 a 60,60 0 1 1 -120,0 60,60 0 1 1 120,0 z"
       transform="translate(0,-927.63783)" />
    <path
       transform="matrix(0.70710678,-0.70710678,0.70710678,0.70710678,-406.10173,60.474001)"
       sodipodi:type="arc"
       style="fill:#40007f;fill-opacity:1;stroke:#000000;stroke-width:5;stroke-miterlimit:4;stroke-opacity:1;stroke-dasharray:none"
       id="path4118-1"
       sodipodi:cx="1000"
       sodipodi:cy="80"
       sodipodi:rx="60"
       sodipodi:ry="60"
       d="m 1060,80 a 60,60 0 1 1 -120,0 60,60 0 1 1 120,0 z" />
    <path
       transform="translate(-900,-27.63783)"
       sodipodi:type="arc"
       style="fill:#40007f;fill-opacity:1;stroke:#000000;stroke-width:5;stroke-miterlimit:4;stroke-opacity:1;stroke-dasharray:none"
       id="path4118-4"
       sodipodi:cx="1000"
       sodipodi:cy="80"
       sodipodi:rx="60"
       sodipodi:ry="60"
       d="m 1060,80 a 60,60 0 1 1 -120,0 60,60 0 1 1 120,0 z" />
    <path
       transform="translate(0,872.36217)"
       sodipodi:type="arc"
       style="fill:#40007f;fill-opacity:1;stroke:#000000;stroke-width:5;stroke-miterlimit:4;stroke-opacity:1;stroke-dasharray:none"
       id="path4118-2"
       sodipodi:cx="1000"
       sodipodi:cy="80"
       sodipodi:rx="60"
       sodipodi:ry="60"
       d="m 1060,80 a 60,60 0 1 1 -120,0 60,60 0 1 1 120,0 z" />
    <path
       transform="translate(900,-27.63783)"
       sodipodi:type="arc"
       style="fill:#40007f;fill-opacity:1;stroke:#000000;stroke-width:5;stroke-miterlimit:4;stroke-opacity:1;stroke-dasharray:none"
       id="path4118-3"
       sodipodi:cx="1000"
       sodipodi:cy="80"
       sodipodi:rx="60"
       sodipodi:ry="60"
       d="m 1060,80 a 60,60 0 1 1 -120,0 60,60 0 1 1 120,0 z" />
    <path
       transform="matrix(0.70710678,-0.70710678,0.70710678,0.70710678,878.75108,60.474001)"
       sodipodi:type="arc"
       style="fill:#40007f;fill-opacity:1;stroke:#000000;stroke-width:5;stroke-miterlimit:4;stroke-opacity:1;stroke-dasharray:none"
       id="path4118-1-2"
       sodipodi:cx="1000"
       sodipodi:cy="80"
       sodipodi:rx="60"
       sodipodi:ry="60"
       d="m 1060,80 a 60,60 0 1 1 -120,0 60,60 0 1 1 120,0 z" />
    <path
       transform="matrix(0.70710678,-0.70710678,0.70710678,0.70710678,878.75108,1345.3268)"
       sodipodi:type="arc"
       style="fill:#40007f;fill-opacity:1;stroke:#000000;stroke-width:5;stroke-miterlimit:4;stroke-opacity:1;stroke-dasharray:none"
       id="path4118-1-21"
       sodipodi:cx="1000"
       sodipodi:cy="80"
       sodipodi:rx="60"
       sodipodi:ry="60"
       d="m 1060,80 a 60,60 0 1 1 -120,0 60,60 0 1 1 120,0 z" />
    <path
       transform="matrix(0.70710678,-0.70710678,0.70710678,0.70710678,-406.10173,1345.3268)"
       sodipodi:type="arc"
       style="fill:#40007f;fill-opacity:1;stroke:#000000;stroke-width:5;stroke-miterlimit:4;stroke-opacity:1;stroke-dasharray:none"
       id="path4118-1-6"
       sodipodi:cx="1000"
       sodipodi:cy="80"
       sodipodi:rx="60"
       sodipodi:ry="60"
       d="m 1060,80 a 60,60 0 1 1 -120,0 60,60 0 1 1 120,0 z" />
    <path
       style="fill:none;stroke:#000000;stroke-width:5;stroke-linecap:butt;stroke-linejoin:miter;stroke-opacity:1;stroke-miterlimit:4;stroke-dasharray:none"
       d="m 1000,1800 c 0,0 -400,-400 -400,-800 0,-400 400,-800 400,-800 0,0 400,400 400,800 0,400 -400,800 -400,800 z"
       id="path4421"
       inkscape:connector-curvature="0"
       transform="translate(0,-947.63783)" />
    <path
       style="fill:none;stroke:#000000;stroke-width:8;stroke-linecap:butt;stroke-linejoin:miter;stroke-opacity:1;stroke-miterlimit:4;stroke-dasharray:none"
       d="m 200,1000 c 0,0 400,-400 800,-400 400,0 800,400 800,400 0,0 -400,400 -800,400 -400,0 -800,-400 -800,-400"
       id="path4423"
       inkscape:connector-curvature="0"
       transform="translate(0,-947.63783)" />
    <path
       style="fill:none;stroke:#000000;stroke-width:5;stroke-linecap:butt;stroke-linejoin:round;stroke-opacity:1;stroke-miterlimit:4;stroke-dasharray:20, 5;stroke-dashoffset:5;marker-start:url(#DotM);marker-mid:none;marker-end:url(#DotM)"
       d="m 1360,1120 c 0,0 0,80 -80,160 -80,80 -160,80 -160,80"
       id="path4433"
       inkscape:connector-curvature="0"
       transform="translate(0,-947.63783)" />
    <path
       style="fill:none;stroke:#0000ff;stroke-width:4.907;stroke-linecap:butt;stroke-linejoin:miter;stroke-miterlimit:4;stroke-opacity:1;stroke-dasharray:4.907,14.721;stroke-dashoffset:0;marker-start:url(#SquareM);marker-end:url(#SquareM);marker-mid:url(#marker6567)"
       d="m 740,-207.63783 40,38.51852 0,442.96296 -40,38.51852"
       id="path6587"
       inkscape:connector-curvature="0" />
    <path
       style="fill:none;stroke:#0000ff;stroke-width:4.47213601999999980;stroke-linecap:butt;stroke-linejoin:miter;stroke-miterlimit:4;stroke-opacity:1;stroke-dasharray:4.47213601999999980, 8.94427203999999950;stroke-dashoffset:0;marker-start:url(#SquareM);marker-mid:url(#marker6567);marker-end:url(#SquareM)"
       d="m 820,292.36217 20,-80 80,0 20,80"
       id="path7588"
       inkscape:connector-curvature="0" />
    <path
       style="fill:none;stroke:#0000ff;stroke-width:4.47213601999999980;stroke-linecap:butt;stroke-linejoin:miter;stroke-miterlimit:4;stroke-opacity:1;stroke-dasharray:4.47213601999999980, 8.94427203999999950;stroke-dashoffset:0;marker-start:url(#SquareM);marker-mid:url(#marker6567);marker-end:url(#SquareM)"
       d="m 820,92.36218 20,79.99999 80,0 20,-79.99999"
       id="path7588-2"
       inkscape:connector-curvature="0" />
    <path
       sodipodi:type="arc"
       style="fill:none;stroke:#007f00;stroke-width:4.47200011999999970;stroke-linecap:butt;stroke-linejoin:miter;stroke-miterlimit:4;stroke-opacity:1;stroke-dasharray:13.41600037000000100, 4.47200011999999970;stroke-dashoffset:0"
       id="path11314"
       sodipodi:cx="930"
       sodipodi:cy="800"
       sodipodi:rx="20"
       sodipodi:ry="20"
       d="m 950,800 a 20,20 0 1 1 -40,0 20,20 0 1 1 40,0 z"
       transform="translate(-150,-967.63783)" />
    <flowRoot
       xml:space="preserve"
       id="flowRoot11316"
       style="font-size:40px;font-style:normal;font-weight:normal;line-height:125%;letter-spacing:0px;word-spacing:0px;fill:#ff7f00;fill-opacity:1;stroke:none;font-family:Sans"
       transform="translate(-80.875,-951.12327)"><flowRegion
         id="flowRegion11318"><rect
           id="rect11320"
           width="29.878302"
           height="42.327595"
           x="810.86395"
           y="760.05048"
           style="fill:#ff7f00;fill-opacity:1" /></flowRegion><flowPara
         id="flowPara11322">?</flowPara></flowRoot>    <path
       sodipodi:type="arc"
       style="fill:none;stroke:#007f00;stroke-width:4.47200011999999970;stroke-linecap:butt;stroke-linejoin:miter;stroke-miterlimit:4;stroke-opacity:1;stroke-dasharray:13.41600037000000100, 4.47200011999999970;stroke-dashoffset:0"
       id="path11314-7"
       sodipodi:cx="930"
       sodipodi:cy="800"
       sodipodi:rx="20"
       sodipodi:ry="20"
       d="m 950,800 a 20,20 0 1 1 -40,0 20,20 0 1 1 40,0 z"
       transform="translate(-150,-527.63783)" />
    <flowRoot
       xml:space="preserve"
       id="flowRoot11316-9"
       style="font-size:40px;font-style:normal;font-weight:normal;line-height:125%;letter-spacing:0px;word-spacing:0px;fill:#ff7f00;fill-opacity:1;stroke:none;font-family:Sans"
       transform="translate(-77.514626,-508.75512)"><flowRegion
         id="flowRegion11318-5"><rect
           id="rect11320-4"
           width="29.878302"
           height="42.327595"
           x="810.86395"
           y="760.05048"
           style="fill:#ff7f00;fill-opacity:1" /></flowRegion><flowPara
         id="flowPara11322-3">?</flowPara></flowRoot>    <text
       xml:space="preserve"
       style="font-size:31.90902138px;font-style:normal;font-weight:normal;line-height:125%;letter-spacing:0px;word-spacing:0px;fill:#000000;fill-opacity:1;stroke:none;font-family:Sans"
       x="842.78009"
       y="131.92555"
       id="text11369"
       sodipodi:linespacing="125%"
       transform="scale(0.9967013,1.0033096)"><tspan
         sodipodi:role="line"
         id="tspan11371"
         x="842.78009"
         y="131.92555">Food</tspan></text>
    <text
       xml:space="preserve"
       style="font-size:31.90902138px;font-style:normal;font-weight:normal;line-height:125%;letter-spacing:0px;word-spacing:0px;fill:#000000;fill-opacity:1;stroke:none;font-family:Sans"
       x="-915.86859"
       y="-241.5627"
       id="text11369-1"
       sodipodi:linespacing="125%"
       transform="scale(-0.99670131,-1.0033096)"><tspan
         sodipodi:role="line"
         id="tspan11371-2"
         x="-915.86859"
         y="-241.5627">Food</tspan></text>
    <flowRoot
       xml:space="preserve"
       id="flowRoot11403"
       style="fill:black;stroke:none;stroke-opacity:1;stroke-width:1px;stroke-linejoin:miter;stroke-linecap:butt;fill-opacity:1;font-family:Sans;font-style:normal;font-weight:normal;font-size:40px;line-height:125%;letter-spacing:0px;word-spacing:0px"><flowRegion
         id="flowRegion11405"><rect
           id="rect11407"
           width="25.728539"
           height="370.15897"
           x="745.29767"
           y="808.18768" /></flowRegion><flowPara
         id="flowPara11409"></flowPara></flowRoot>    <text
       xml:space="preserve"
       style="font-size:28.90975189px;font-style:normal;font-weight:normal;line-height:125%;letter-spacing:0px;word-spacing:0px;fill:#000000;fill-opacity:1;stroke:none;font-family:Sans"
       x="-165.96797"
       y="846.06006"
       id="text11411"
       sodipodi:linespacing="125%"
       transform="matrix(0,-1.0987793,0.91010088,0,0,0)"><tspan
         sodipodi:role="line"
         id="tspan11413"
         x="-165.96797"
         y="846.06006">FoodFoodFoodFood</tspan></text>
    <path
       id="path11417"
       transform="translate(0,-947.63783)"
       style="fill:none;stroke:#000000;stroke-width:0;stroke-linecap:butt;stroke-linejoin:miter;stroke-opacity:1;stroke-miterlimit:4;stroke-dasharray:0,0;stroke-dashoffset:0;marker-start:none"
       d="m 820,920 10,0 0,-30 m -10,120 0,-90 -10,0 0,-30" />
    <path
       style="fill:none;stroke:#007f00;stroke-width:2;stroke-linecap:butt;stroke-linejoin:miter;stroke-miterlimit:4;stroke-opacity:1;stroke-dasharray:4, 2;stroke-dashoffset:0"
       d="m 820,62.36217 0,-70 -10,-20 10,-20 10,20 -10,20"
       id="path12266"
       inkscape:connector-curvature="0" />
    <path
       style="fill:none;stroke:#007f00;stroke-width:2;stroke-linecap:butt;stroke-linejoin:miter;stroke-miterlimit:4;stroke-opacity:1;stroke-dasharray:4, 2;stroke-dashoffset:0"
       d="m 850,62.36217 0,-70 -10,0 0,-30 10,30 10,-30 0,30 -10,0"
       id="path12268"
       inkscape:connector-curvature="0" />
    <path
       style="fill:none;stroke:#007f00;stroke-width:2;stroke-linecap:butt;stroke-linejoin:miter;stroke-miterlimit:4;stroke-opacity:1;stroke-dasharray:4, 2;stroke-dashoffset:0"
       d="m 880,62.36217 0,-70 0,-40 -10,40 10,0"
       id="path12274"
       inkscape:connector-curvature="0" />
    <rect
       style="fill:none;stroke:#ff7f00;stroke-width:3;stroke-linecap:butt;stroke-linejoin:miter;stroke-miterlimit:4;stroke-opacity:1;stroke-dasharray:6, 3;stroke-dashoffset:0"
       id="rect12276"
       width="90"
       height="160.00002"
       x="800"
       y="860"
       transform="translate(0,-947.63783)" />
    <flowRoot
       xml:space="preserve"
       id="flowRoot11316-4"
       style="font-size:40px;font-style:normal;font-weight:normal;line-height:125%;letter-spacing:0px;word-spacing:0px;fill:#ff7f00;fill-opacity:1;stroke:none;font-family:Sans"
       transform="translate(-10.875,-851.12327)"><flowRegion
         id="flowRegion11318-1"><rect
           id="rect11320-1"
           width="29.878302"
           height="42.327595"
           x="810.86395"
           y="760.05048"
           style="fill:#ff7f00;fill-opacity:1" /></flowRegion><flowPara
         id="flowPara11322-38">?</flowPara></flowRoot>    <text
       xml:space="preserve"
       style="font-size:25.53310966px;font-style:normal;font-weight:normal;line-height:125%;letter-spacing:0px;word-spacing:0px;fill:#000000;fill-opacity:1;stroke:none;font-family:Sans"
       x="851.52899"
       y="-55.986095"
       id="text11369-7"
       sodipodi:linespacing="125%"
       transform="scale(0.97044257,1.0304577)"><tspan
         sodipodi:role="line"
         id="tspan11371-4"
         x="851.52899"
         y="-55.986095">Food</tspan></text>
    <path
       style="fill:#40007f;stroke:#7f00ff;stroke-width:1;stroke-linecap:butt;stroke-linejoin:miter;stroke-opacity:1;fill-opacity:1;stroke-miterlimit:4;stroke-dasharray:1,1;stroke-dashoffset:0"
       d="m 1220,1165 25,-10 -10,25 -25,10 10,-25"
       id="path16636"
       inkscape:connector-curvature="0"
       transform="translate(0,-947.63783)" />
    <path
       style="fill:#40007f;stroke:#7f00ff;stroke-width:1;stroke-linecap:butt;stroke-linejoin:miter;stroke-opacity:1;fill-opacity:1;stroke-miterlimit:4;stroke-dasharray:1,1;stroke-dashoffset:0"
       d="m 1020,217.36217 -25,-10 10,25 25,10 -10,-25"
       id="path16636-7"
       inkscape:connector-curvature="0" />
    <path
       style="fill:#40007f;stroke:#7f00ff;stroke-width:1;stroke-linecap:butt;stroke-linejoin:miter;stroke-opacity:1;fill-opacity:1;stroke-miterlimit:4;stroke-dasharray:1,1;stroke-dashoffset:0"
       d="M 1130.6066,182.11091 1120,157.36217 l -10.6066,24.74874 10.6066,24.74874 10.6066,-24.74874"
       id="path16636-7-7"
       inkscape:connector-curvature="0" />
    <text
       xml:space="preserve"
       style="font-size:123.33072662px;font-style:normal;font-weight:normal;line-height:125%;letter-spacing:0px;word-spacing:0px;fill:#40007f;fill-opacity:1;stroke:none;font-family:Sans"
       x="1126.7445"
       y="320.04855"
       id="text16676"
       sodipodi:linespacing="125%"
       transform="scale(0.96295123,1.0384742)"><tspan
         sodipodi:role="line"
         id="tspan16678"
         x="1126.7445"
         y="320.04855">?</tspan></text>
    <path
       style="fill:none;stroke:#000000;stroke-width:20;stroke-linecap:butt;stroke-linejoin:miter;stroke-opacity:1;stroke-miterlimit:4;stroke-dasharray:none;marker-start:none;marker-end:url(#Arrow2Send)"
       d="m 1000,600 0,-440"
       id="path16696"
       inkscape:connector-curvature="0"
       transform="translate(0,-947.63783)" />
    <path
       style="fill:none;stroke:#000000;stroke-width:20;stroke-linecap:butt;stroke-linejoin:miter;stroke-opacity:1;stroke-miterlimit:4;stroke-dasharray:none;marker-mid:none;marker-end:url(#Arrow2Send)"
       d="M 1325,675 1600,400"
       id="path16700"
       inkscape:connector-curvature="0"
       transform="translate(0,-947.63783)" />
    <path
       style="fill:none;stroke:#000000;stroke-width:1px;stroke-linecap:butt;stroke-linejoin:miter;stroke-opacity:1"
       d="m 1400,1000 440,0"
       id="path16702"
       inkscape:connector-curvature="0"
       transform="translate(0,-947.63783)" />
    <path
       style="color:#000000;fill:none;stroke:#000000;stroke-width:20;stroke-linecap:butt;stroke-linejoin:miter;stroke-miterlimit:4;stroke-opacity:1;stroke-dasharray:none;stroke-dashoffset:0;marker:none;visibility:visible;display:inline;overflow:visible;enable-background:accumulate;marker-mid:none;marker-end:url(#Arrow2Send)"
       d="m 1400,52.36217 440,0"
       id="path16704"
       inkscape:connector-curvature="0" />
    <path
       style="color:#000000;fill:none;stroke:#000000;stroke-width:20;stroke-linecap:butt;stroke-linejoin:miter;stroke-miterlimit:4;stroke-opacity:1;stroke-dasharray:none;stroke-dashoffset:0;marker:none;visibility:visible;display:inline;overflow:visible;enable-background:accumulate;marker-end:url(#Arrow2Send)"
       d="m 1000,1400 0,440"
       id="path16706"
       inkscape:connector-curvature="0"
       transform="translate(0,-947.63783)" />
    <path
       style="color:#000000;fill:none;stroke:#000000;stroke-width:20;stroke-linecap:butt;stroke-linejoin:miter;stroke-miterlimit:4;stroke-opacity:1;stroke-dasharray:none;stroke-dashoffset:0;marker:none;visibility:visible;display:inline;overflow:visible;enable-background:accumulate;marker-end:none;marker-start:url(#Arrow2Sstart)"
       d="m 160,1000 440,0"
       id="path16708"
       inkscape:connector-curvature="0"
       transform="translate(0,-947.63783)" />
    <path
       style="color:#000000;fill:none;stroke:#000000;stroke-width:20;stroke-linecap:butt;stroke-linejoin:miter;stroke-miterlimit:4;stroke-opacity:1;stroke-dasharray:none;stroke-dashoffset:0;marker:none;visibility:visible;display:inline;overflow:visible;enable-background:accumulate;marker-start:none;marker-end:url(#Arrow2Send)"
       d="M 675,675 400,400"
       id="path16710"
       inkscape:connector-curvature="0"
       transform="translate(0,-947.63783)" />
    <path
       style="color:#000000;fill:none;stroke:#000000;stroke-width:20;stroke-linecap:butt;stroke-linejoin:miter;stroke-miterlimit:4;stroke-opacity:1;stroke-dasharray:none;stroke-dashoffset:0;marker:none;visibility:visible;display:inline;overflow:visible;enable-background:accumulate;marker-end:none;marker-start:url(#Arrow2Sstart)"
       d="M 400,1600 675,1325"
       id="path16712"
       inkscape:connector-curvature="0"
       transform="translate(0,-947.63783)" />
    <path
       style="color:#000000;fill:none;stroke:#000000;stroke-width:20;stroke-linecap:butt;stroke-linejoin:miter;stroke-miterlimit:4;stroke-opacity:1;stroke-dasharray:none;stroke-dashoffset:0;marker:none;visibility:visible;display:inline;overflow:visible;enable-background:accumulate;marker-mid:none;marker-end:url(#Arrow2Send)"
       d="m 1327,1325 273,275"
       id="path16714"
       inkscape:connector-curvature="0"
       transform="translate(0,-947.63783)" />
    <path
       style="fill:none;stroke:#007f00;stroke-width:5;stroke-linecap:butt;stroke-linejoin:miter;stroke-opacity:1;stroke-miterlimit:4;stroke-dasharray:none"
       d="m 720,720 0,560 560,0 0,-560"
       id="path4429"
       inkscape:connector-curvature="0"
       transform="translate(0,-947.63783)" />
    <path
       transform="translate(0,-947.63783)"
       inkscape:connector-curvature="0"
       id="path6553"
       d="m 1360,1120 c 0,0 0,80 -80,160 -80,80 -160,80 -160,80"
       style="fill:none;stroke:#007f00;stroke-width:5;stroke-linecap:butt;stroke-linejoin:round;stroke-opacity:1;stroke-miterlimit:4;stroke-dasharray:20, 5;stroke-dashoffset:5;marker-start:url(#DotM);marker-mid:none;marker-end:url(#DotM)" />
    <path
       inkscape:connector-curvature="0"
       id="path6553-7"
       d="m 640,172.36217 c 0,0 0,80 80,160 80,80 160,80 160,80"
       style="fill:none;stroke:#007f00;stroke-width:5;stroke-linecap:butt;stroke-linejoin:round;stroke-miterlimit:4;stroke-opacity:1;stroke-dasharray:20, 5;stroke-dashoffset:5;marker-start:url(#DotM);marker-mid:none;marker-end:url(#DotM)" />
  </g>
</svg>
